<svg xmlns="http://www.w3.org/2000/svg" width="320" height="320" fill="none" viewBox="0 0 320 320">
    <mask id="zjvqygufda" width="239" height="189" x="21" y="68" maskUnits="userSpaceOnUse">
        <path fill="#fff" d="M239.861 228.286L37.205 256.767c-6.926.973-13.734-4.698-13.85-11.538L21.23 119.891c-.196-11.531 7.869-20.784 19.544-22.424l202.656-28.482c6.926-.973 13.733 4.698 13.849 11.538l2.127 125.338c.196 11.531-7.869 20.784-19.544 22.425z"/>
    </mask>
    <g mask="url(#zjvqygufda)">
        <path fill="#0373F9" d="M239.861 228.286L37.205 256.767c-6.926.973-13.734-4.698-13.85-11.538L21.23 119.891c-.196-11.531 7.869-20.784 19.544-22.424l202.656-28.482c6.926-.973 13.733 4.698 13.849 11.538l2.127 125.338c.196 11.531-7.869 20.784-19.544 22.425z"/>
        <mask id="zoh97s4ndb" width="239" height="200" x="21" y="72" maskUnits="userSpaceOnUse">
            <path fill="#fff" d="M21.13 271.172V113.954l238.667-41.27v157.218l-238.668 41.27z"/>
        </mask>
        <g mask="url(#zoh97s4ndb)">
            <path fill="url(#paint0_linear)" d="M21.13 271.172V113.954l238.667-41.27v157.218l-238.668 41.27z"/>
            <path fill="#308CFD" d="M52.782 279.768V164.854l156.021-28.078V251.69l-156.02 28.078z"/>
            <path fill="#62A8FD" d="M40.408 216.491c4.102 0 7.427 3.326 7.427 7.427v69.318c0 4.102-3.325 7.427-7.427 7.427-4.101 0-7.427-3.325-7.427-7.427v-69.318c0-4.101 3.326-7.427 7.427-7.427z"/>
            <path fill="#94C4FE" d="M40.408 221.537c-1.709 0-3.094 1.385-3.094 3.094v29.379c0 1.71 1.385 3.095 3.094 3.095 1.71 0 3.095-1.385 3.095-3.095v-29.379c0-1.709-1.386-3.094-3.095-3.094z"/>
            <path fill="#62A8FD" d="M78.053 218.539v69.318c0 4.102-3.325 7.427-7.427 7.427-1.97 0-3.859-.783-5.252-2.176-1.392-1.392-2.175-3.281-2.175-5.251v-69.318c0-4.101 3.325-7.427 7.427-7.427 4.102 0 7.427 3.326 7.427 7.427z"/>
            <path fill="#308CFD" d="M70.626 216.158c-1.709 0-3.095 1.385-3.095 3.094v50.711c0 1.709 1.386 3.095 3.095 3.095 1.71 0 3.095-1.386 3.095-3.095v-50.711c0-1.709-1.386-3.094-3.095-3.094z"/>
        </g>
    </g>
    <path fill="#0373F9" d="M194.888 137.63L88.679 157.062l-.334 70.599c.214 2.205 1.328 4.223 3.078 5.581 1.75 1.357 3.982 1.934 6.17 1.593l111.21-19.433 1.335-70.599c-.231-4.436-10.777-7.962-15.25-7.173z"/>
    <path fill="#25E9F4" d="M176.117 174.825L44.516 198.406c-3.169.568-6.426-.298-8.895-2.364-2.469-2.065-3.895-5.119-3.895-8.338V84.228c0-5.264 3.772-9.773 8.954-10.701l131.602-23.58c3.169-.569 6.426.297 8.895 2.363 2.468 2.065 3.895 5.119 3.895 8.338v103.476c0 5.264-3.772 9.773-8.955 10.701z"/>
    <path fill="#8DF7F7" d="M49.118 93.754c-1.76-.002-3.23-1.346-3.388-3.1-.159-1.753 1.046-3.339 2.778-3.656l117.389-21.513c1.197-.22 2.421.215 3.211 1.142.789.927 1.023 2.205.614 3.352-.409 1.147-1.399 1.988-2.597 2.207L49.737 93.698c-.204.037-.411.056-.619.056zM49.118 110.27c-1.76-.002-3.23-1.346-3.388-3.099-.159-1.754 1.046-3.34 2.778-3.657l117.389-21.513c1.197-.22 2.421.215 3.21 1.142.79.927 1.024 2.205.615 3.352-.409 1.147-1.399 1.988-2.597 2.207L49.737 110.214c-.204.037-.411.056-.619.056zM49.118 126.787c-1.76-.002-3.23-1.346-3.388-3.1-.159-1.754 1.046-3.34 2.778-3.657l117.389-21.512c1.197-.22 2.42.216 3.208 1.143.789.926 1.023 2.204.614 3.35-.408 1.146-1.397 1.987-2.594 2.207L49.737 126.73c-.204.038-.411.057-.619.057zM49.118 143.303c-1.76-.002-3.23-1.346-3.388-3.1-.159-1.754 1.046-3.34 2.778-3.657l117.389-21.512c1.197-.221 2.421.214 3.211 1.141.789.928 1.023 2.205.614 3.352-.409 1.147-1.399 1.988-2.597 2.207L49.737 143.246c-.204.038-.411.057-.619.057zM49.118 159.819c-1.76-.002-3.23-1.346-3.388-3.1-.159-1.754 1.046-3.339 2.778-3.657l117.389-21.512c1.197-.221 2.421.214 3.21 1.141.79.928 1.024 2.206.615 3.352-.409 1.147-1.399 1.989-2.597 2.207L49.737 159.762c-.204.038-.411.057-.619.057zM49.118 176.335c-1.76-.002-3.23-1.346-3.388-3.1-.159-1.754 1.046-3.339 2.778-3.657l117.389-21.512c1.197-.22 2.42.216 3.208 1.143.789.927 1.023 2.204.614 3.35-.408 1.146-1.397 1.988-2.594 2.207L49.737 176.278c-.204.038-.411.057-.619.057z"/>
    <mask id="zfepwami4c" width="180" height="143" x="98" y="68" maskUnits="userSpaceOnUse">
        <path fill="#fff" d="M262.728 188.592l-152.194 21.39c-5.202.731-10.314-3.528-10.401-8.665l-1.597-94.129c-.147-8.66 5.909-15.608 14.677-16.84l152.195-21.39c5.201-.73 10.314 3.528 10.401 8.665l1.597 94.129c.147 8.659-5.91 15.608-14.678 16.84z"/>
    </mask>
    <g mask="url(#zfepwami4c)">
        <path fill="#0373F9" d="M262.728 188.592l-152.194 21.39c-5.202.731-10.314-3.528-10.401-8.665l-1.597-94.129c-.147-8.66 5.909-15.608 14.677-16.84l152.195-21.39c5.201-.73 10.314 3.528 10.401 8.665l1.597 94.129c.147 8.659-5.91 15.608-14.678 16.84z"/>
        <path fill="url(#paint1_linear)" d="M251.305 240.084c58.805-3.118 104.861-36.08 102.871-73.624-1.991-37.543-51.275-65.45-110.08-62.332-58.804 3.118-104.861 36.081-102.87 73.624 1.991 37.543 51.275 65.451 110.079 62.332z" opacity=".4"/>
        <path fill="url(#paint2_linear)" d="M133.084 292.978c58.805-3.118 104.861-36.081 102.87-73.624-1.99-37.544-51.275-65.451-110.079-62.332-58.805 3.118-104.861 36.08-102.87 73.624 1.99 37.543 51.275 65.45 110.079 62.332z" opacity=".4"/>
    </g>
    <path fill="#94C4FE" d="M205.977 134.922c7.235-9.26 6.099-22.235-2.536-28.981-8.635-6.747-21.5-4.709-28.734 4.55-7.234 9.259-6.099 22.235 2.537 28.981 8.635 6.747 21.499 4.709 28.733-4.55zM245.345 200.252L144.56 214.416l-.518-7.391c-1.968-28.104 18.998-54.058 46.83-57.97 27.831-3.911 51.988 15.701 53.956 43.805l.517 7.392z"/>
    <path fill="#62A8FD" d="M188.938 134.748c-.104 0-.209-.001-.313-.005-4.796-.168-8.56-4.17-8.435-8.967.126-4.798 4.094-8.598 8.892-8.515 4.798.082 8.633 4.016 8.594 8.815-.039 4.798-3.939 8.669-8.738 8.672zm-.013-14.576c-3.178.003-5.768 2.552-5.822 5.729-.054 3.178 2.447 5.813 5.624 5.924 2.08.073 4.042-.97 5.146-2.736 1.103-1.765 1.181-3.986.203-5.824-.977-1.839-2.861-3.016-4.942-3.089-.07-.002-.14-.004-.209-.004zM208.092 130.77c-.103 0-.205-.002-.309-.005-4.797-.168-8.563-4.172-8.437-8.971.126-4.798 4.096-8.599 8.896-8.516 4.8.084 8.635 4.02 8.594 8.821-.041 4.8-3.944 8.67-8.744 8.671zm-.207-2.923c2.356.082 4.529-1.262 5.507-3.407.978-2.145.567-4.668-1.041-6.392-1.607-1.724-4.095-2.31-6.303-1.485-2.208.826-3.702 2.9-3.784 5.256-.094 3.21 2.412 5.898 5.621 6.028z"/>
    <path fill="#62A8FD" d="M193.949 126.666c-.727-.001-1.343-.537-1.444-1.257-.102-.72.343-1.405 1.042-1.606l8.653-2.486c.501-.144 1.041-.01 1.417.352.375.362.529.897.403 1.403s-.512.907-1.013 1.051l-8.653 2.485c-.132.038-.268.057-.405.058z"/>
    <path fill="#25E9F4" d="M217.687 229.44l1.548 22.861c.167 1.668-.986 3.181-2.639 3.461l-79.663 14.406c-1.203.156-2.417-.185-3.363-.943-.946-.758-1.543-1.869-1.653-3.077l-1.548-22.861c-.168-1.668.986-3.181 2.639-3.462l79.663-14.405c1.202-.156 2.417.185 3.363.943.946.758 1.543 1.869 1.653 3.077z"/>
    <path fill="#8DF7F7" d="M152.716 258.86c-3.367 0-5.532-2.685-7.015-4.526-.642-.795-1.819-2.288-2.273-2.2-1.094.199-2.21-.2-2.929-1.048-.718-.848-.929-2.014-.553-3.06.376-1.046 1.282-1.811 2.376-2.007 4.063-.741 6.564 2.365 8.216 4.415.642.796 1.812 2.281 2.273 2.201.435-.079 1.036-1.886 1.358-2.857.83-2.5 2.085-6.279 6.149-7.013 4.064-.736 6.562 2.365 8.214 4.417.642.797 1.867 2.283 2.27 2.2.433-.078 1.033-1.886 1.356-2.857.83-2.5 2.084-6.278 6.148-7.013 4.062-.741 6.561 2.365 8.212 4.417.644.797 1.878 2.289 2.27 2.2.432-.078 1.031-1.884 1.353-2.855.83-2.5 2.083-6.279 6.146-7.013 4.061-.742 6.56 2.365 8.212 4.416.641.797 1.852 2.276 2.267 2.201 1.093-.198 2.208.203 2.925 1.05.717.847.928 2.013.553 3.058-.376 1.044-1.28 1.81-2.372 2.007-4.071.73-6.561-2.367-8.213-4.418-.643-.797-1.837-2.281-2.267-2.2-.432.078-1.032 1.885-1.353 2.856-.83 2.5-2.083 6.278-6.146 7.013-4.061.735-6.561-2.366-8.212-4.417-.644-.797-1.884-2.28-2.27-2.2-.434.078-1.033 1.885-1.356 2.856-.831 2.5-2.084 6.279-6.148 7.013-4.062.736-6.561-2.365-8.214-4.416-.641-.797-1.856-2.286-2.269-2.2-.435.078-1.035 1.885-1.358 2.857-.83 2.5-2.085 6.278-6.149 7.013-.396.072-.798.109-1.201.11z"/>
    <path fill="#62A8FD" d="M263.574 188.28c8.745-1.385 14.68-8.438 14.382-17.094l-1.276-37.055-54.572 9.154c-3.306.547-5.75 3.378-5.809 6.729l-.74 45.252 48.015-6.986z"/>
    <path fill="#8DF7F7" d="M297.906 192.527l-65.274 10.796c-2.033.336-4.111-.248-5.671-1.595-1.559-1.346-2.44-3.316-2.405-5.376l.697-39.922c.059-3.351 2.503-6.182 5.81-6.729l65.274-10.796c2.033-.336 4.11.248 5.67 1.594 1.56 1.347 2.441 3.317 2.405 5.377l-.697 39.922c-.058 3.351-2.502 6.182-5.809 6.729z"/>
    <path fill="#03D8D8" d="M273.982 168.707c3.072-4 2.648-9.482-.949-12.244-3.596-2.762-9.002-1.758-12.074 2.242-3.073 4-2.648 9.482.949 12.244 3.596 2.762 9.002 1.758 12.074-2.242zM266.845 175.676c4.6-.832 9.334.391 12.955 3.347 3.622 2.956 5.769 7.348 5.876 12.022l.482 9.439-35.805 5.671-.481-9.439c-.351-10.255 6.876-19.214 16.973-21.04zM96.087 89.83l-70.152 12.569c-1.842.33-3.735-.173-5.17-1.374-1.436-1.2-2.265-2.976-2.265-4.847V71.616c0-3.06 2.193-5.681 5.206-6.221l70.151-12.57c1.843-.33 3.736.173 5.171 1.374 1.435 1.2 2.265 2.976 2.265 4.847v24.562c0 3.06-2.193 5.681-5.206 6.221z"/>
    <path fill="#8DF7F7" d="M37.398 91.966c3.93 0 7.114-4.815 7.114-10.756 0-5.94-3.185-10.756-7.114-10.756-3.93 0-7.115 4.816-7.115 10.756s3.186 10.756 7.115 10.756zM59.896 87.683c3.93 0 7.115-4.816 7.115-10.756S63.826 66.17 59.896 66.17c-3.929 0-7.114 4.816-7.114 10.757 0 5.94 3.185 10.756 7.114 10.756zM82.395 83.399c3.93 0 7.114-4.816 7.114-10.756s-3.185-10.756-7.114-10.756c-3.93 0-7.114 4.815-7.114 10.756 0 5.94 3.185 10.756 7.114 10.756z"/>
    <defs>
        <linearGradient id="paint0_linear" x1="21.129" x2="259.798" y1="171.928" y2="171.928" gradientUnits="userSpaceOnUse">
            <stop offset=".018" stop-color="#0373F9"/>
            <stop offset=".298" stop-color="#076FF1"/>
            <stop offset=".724" stop-color="#1164DC"/>
            <stop offset="1" stop-color="#195BCB"/>
        </linearGradient>
        <linearGradient id="paint1_linear" x1="353.007" x2="143.904" y1="162.776" y2="192.163" gradientUnits="userSpaceOnUse">
            <stop offset=".015" stop-color="#62A8FD"/>
            <stop offset=".185" stop-color="#5AA4FD"/>
            <stop offset=".443" stop-color="#4598FC"/>
            <stop offset=".755" stop-color="#2385FA"/>
            <stop offset="1" stop-color="#0373F9"/>
        </linearGradient>
        <linearGradient id="paint2_linear" x1="236.495" x2="22.799" y1="223.011" y2="216.331" gradientUnits="userSpaceOnUse">
            <stop offset=".015" stop-color="#62A8FD"/>
            <stop offset=".185" stop-color="#5AA4FD"/>
            <stop offset=".443" stop-color="#4598FC"/>
            <stop offset=".755" stop-color="#2385FA"/>
            <stop offset="1" stop-color="#0373F9"/>
        </linearGradient>
    </defs>
</svg>
